<svg xmlns="http://www.w3.org/2000/svg"
    xmlns:xlink="http://www.w3.org/1999/xlink" width="118" height="114" viewBox="0 0 118 114">
    <defs>
        <radialGradient id="a" cx="154.42" cy="72.92" r="34.77" gradientTransform="translate(-193.3 66.9) scale(1.63 0.42)" gradientUnits="userSpaceOnUse">
            <stop offset="0" stop-opacity="0.5"/>
            <stop offset="0.04" stop-opacity="0.8"/>
            <stop offset="1" stop-opacity="0"/>
        </radialGradient>
        <radialGradient id="b" cx="59.76" cy="53.39" r="52.02" gradientUnits="userSpaceOnUse">
            <stop offset="0" stop-color="#f20638" stop-opacity="0.65"/>
            <stop offset="0.58" stop-color="#dd0533" stop-opacity="0.75"/>
            <stop offset="1" stop-color="#a90427"/>
        </radialGradient>
        <linearGradient id="c" x1="7.77" y1="50.82" x2="111.75" y2="50.82" gradientUnits="userSpaceOnUse">
            <stop offset="0" stop-color="#d97692"/>
            <stop offset="0.23" stop-color="#d8738f"/>
            <stop offset="0.44" stop-color="#d66887"/>
            <stop offset="0.63" stop-color="#d35679"/>
            <stop offset="0.82" stop-color="#ce3d66"/>
            <stop offset="1" stop-color="#c71d4d"/>
        </linearGradient>
        <radialGradient id="d" cx="52.03" cy="28.8" r="26.4" gradientUnits="userSpaceOnUse">
            <stop offset="0" stop-color="#fff" stop-opacity="0.3"/>
            <stop offset="0.24" stop-color="#fff" stop-opacity="0.25"/>
            <stop offset="0.69" stop-color="#fff" stop-opacity="0.11"/>
            <stop offset="1" stop-color="#fff" stop-opacity="0"/>
        </radialGradient>
    </defs>
    <title>bttn_ch-dictee</title>
    <rect width="118" height="114" fill="#47ff5c" opacity="0"/>
    <ellipse cx="57.9" cy="97.5" rx="56.6" ry="14.6" fill="url(#a)"/>
    <path d="M85.4,62c-.9.1-2.1.6-2.7,2.9h4.8C87.6,64.3,87.6,62,85.4,62Z" fill="#e6004c"/>
    <path d="M29.1,60A4.2,4.2,0,0,0,32,61.3q.6-3.6,1.5-7.1a3.4,3.4,0,0,0-2-1.4C28.6,52.2,27.6,58,29.1,60Z" fill="#e6004c"/>
    <path d="M72,61.3c-1,0-2.3.4-3,2.7l5.2.5C74.3,63.8,74.4,61.5,72,61.3Z" fill="#e6004c"/>
    <path d="M73.5,3.2A52,52,0,1,1,9.6,39.6,52,52,0,0,1,73.5,3.2Z" fill-rule="evenodd" fill="url(#b)"/>
    <path d="M33.2,36.7c2.2-2.2,5.1-3.3,8.2-1.6s4.2,4.6,4.1,7.9Zm14.2,54-2.1,5.6,2.1,1c1.6,1,2.6.7,3.4-1.2s1.9-3.8,2.9-5.7c3.1.4,3.6,1.4,2.1,4L53,99.1c3.4,2,3.5,2,5.5-.8s2.1-2.9,3-4.4,1-4-.9-5.1a37,37,0,0,0-6.2-2.3c-.6-.2-1.5-.2-1.8-.6-2.6-3.2-6.4-4.2-9.9-5.7-1.3-.5-1.9-.2-2.3,1s-1.7,4.6-2.4,6.9c-1.3,4.4-1,4.8,3.7,6.2l3.1-8.6C48.2,87.2,48.5,87.9,47.4,90.7ZM96.5,69.3c.4,6.2-5.1,13.5-11,15-4.3,1-8-2-7.5-6.3ZM77.8,35.1c1.6-3.5,1.3-4.4-1.9-5.8-1.3-.6-2.5-.9-2.3-2.9s.1-3.6-3.9-4a5.6,5.6,0,0,0-.4.9L65.1,38.7a8.3,8.3,0,0,0,8.1,10.8,2.1,2.1,0,0,0,1.7-.9,24.1,24.1,0,0,0,.7-3.9L73,44.2a3,3,0,0,1-2.3-3.9c.5-2.4,1.3-4.7,2-7.3ZM10.9,45.2c-3.2,5.3-2.6,21.1.6,24.1,1.9-3,3.8-6,5.6-9ZM36.7,15.4A3,3,0,0,0,36,17a11.2,11.2,0,0,0,.6,3.1,1.7,1.7,0,0,0,1.4,0,17.1,17.1,0,0,0,2.4-3.4c.5-1,.2-2.5.9-3.1A48.3,48.3,0,0,1,47,9.8h.7l.2,1.7c2-1.1,3.8-2.1,4-5.2C45.8,8.1,40.4,10.3,36.7,15.4Zm47.5-2.1.6.8A32.9,32.9,0,0,1,92.6,27c.6,2,2.3,2.2,4,2.6a2.9,2.9,0,0,0,0-.8,34,34,0,0,0-8.9-14.4c-.8-.8-2.1-1-3.2-1.5ZM80.9,96.7c-.6.1-1.6,0-1.8.4-2.5,3.5-6.1,4.8-10.1,5.5a4.7,4.7,0,0,0-1.1.6,40.7,40.7,0,0,0,14.7-4.5l-.2-.6-1.3.2Zm3.5-84.9a6.4,6.4,0,0,0-6.5-3L84,12.4Z" fill="#fff" opacity="0.58"/>
    <path d="M109.9,67.2a51.8,51.8,0,0,0-1.3-31.7l-.3-.4a45.6,45.6,0,0,1,1.3,4.6c-1.5,4.4-11.5,7.1-27.6,6.5-23.4-.8-50.5-8.1-60.6-16.4-2.4-1.9-3.6-3.7-3.8-5.4a45.4,45.4,0,0,1,3.2-4.8l-1.3.9A52.2,52.2,0,0,0,8.2,60.3,14,14,0,0,0,11.6,64c11,9,40.6,17,66.1,17.9,14.2.5,24.2-1.4,28.2-4.6A52.3,52.3,0,0,0,109.9,67.2Z" fill="url(#c)"/>
    <path d="M32,61.3a6.2,6.2,0,0,1-1.6-.4c-3.6-1.5-1.9-7.4.1-8.1a2.8,2.8,0,0,1,3.1,1.4c-.6,2.3-1.1,4.7-1.5,7.1M34.1,64l.2-1.4a117.2,117.2,0,0,1,4.1-16.4L36,46q-1,2.8-1.8,5.8c-3.3-3.8-7.8-1-8.1,5.1-.2,4.6,2.8,7.3,8,7.2m6.2,2.2.3-1.7c.6-3.6,1.4-7.1,2.2-10.7l-2.5-.7c-.9,3.5-1.7,7.1-2.3,10.6l-.3,1.7,2.6.7m3.6-15.7a1.7,1.7,0,0,0-1.1-2.4,1.9,1.9,0,0,0-1.6,3,1.5,1.5,0,0,0,2.7-.6m8.7,18.3h.1V66.4s-4.9.9-5.4-2.7,1.8-7.6,6.3-4.4l1-2.2a8.3,8.3,0,0,0-3-1.3,5.4,5.4,0,0,0-5.9,2.4c-1.3,2.1-1.8,5.7-.4,8s7.2,2.7,7.2,2.7m10.3,1.6H63V68.1c-4.6,1.1-4.1-1.9-4-3l.9-5.1,4.3.7.4-2.4-4.3-.7.6-3.8H58L56.1,64.7c-1.2,7.6,5.9,6,6.7,5.8M69,64c1-3.4,4-3.2,4.9-1.5a3.3,3.3,0,0,1,.3,2L69,64m7.9,1.8c.7-5.4-2.2-6.7-4.7-6.9-6.1-.1-8,8.4-5,11.5s7.2,1.6,8,1.2V69.3c-.1,0-6.7,1.9-6.5-3.2l8,.7.2-1m5.8-.9c.8-3.4,3.5-3.5,4.4-2.1a3.3,3.3,0,0,1,.4,2.1H82.7M89.8,66c.6-5.4-2.1-6.4-4.4-6.4-5.9.4-7.3,9.4-4.3,12s5.9.9,7,.4V69.6c-.1,0-6.1,2.5-5.9-2.5h7.2c0-.2.1-.4.2-1" fill="#fff"/>
    <circle cx="52" cy="28.8" r="26.4" fill="url(#d)"/>
</svg>