<svg xmlns="http://www.w3.org/2000/svg" xmlns:xlink="http://www.w3.org/1999/xlink" width="140" height="178" viewBox="0 0 140 178"><defs><clipPath id="a"><path d="M51,.9C23.3.9.9,21.1.9,46v130H101.2V46C101.2,21.1,78.7.9,51,.9Z" fill="none"/></clipPath><filter id="b" name="AI_GaussiaansVervagen_10"><feGaussianBlur stdDeviation="10"/></filter><linearGradient id="c" x1="51.03" y1="96.32" x2="51.03" y2="24.84" gradientUnits="userSpaceOnUse"><stop offset="0" stop-color="#fff" stop-opacity="0.1"/><stop offset="1" stop-color="#fff"/></linearGradient><linearGradient id="d" x1="51.03" y1="153.08" x2="51.03" y2="119.12" gradientUnits="userSpaceOnUse"><stop offset="0" stop-color="#fff" stop-opacity="0.7"/><stop offset="1" stop-color="#fff" stop-opacity="0.1"/></linearGradient><linearGradient id="e" x1="82.47" y1="103.92" x2="94.55" y2="103.92" gradientUnits="userSpaceOnUse"><stop offset="0" stop-color="#1be1e1"/><stop offset="1" stop-color="#009696"/></linearGradient><linearGradient id="f" x1="41.12" y1="41.85" x2="69.13" y2="75.23" gradientUnits="userSpaceOnUse"><stop offset="0" stop-color="#fff" stop-opacity="0.7"/><stop offset="1" stop-color="#fff" stop-opacity="0"/></linearGradient><filter id="g" name="AI_GaussiaansVervagen_3"><feGaussianBlur stdDeviation="3"/></filter></defs><title>bttn_ch-profiel</title><rect width="140" height="178" fill="#47ff5c" opacity="0"/><path d="M51,.9C23.3.9.9,21.1.9,46v130H101.2V46C101.2,21.1,78.7.9,51,.9Z"/><g clip-path="url(#a)"><g filter="url(#b)"><path d="M51.1,8.3c-24.7,0-44.7,18-44.7,40.3V178.8H95.8V48.6C95.8,26.3,75.8,8.3,51.1,8.3Z" fill="#0b6868"/></g></g><path d="M71.7,30.6V96.3H52V24.8A39.3,39.3,0,0,1,71.7,30.6Zm-42,65.8H50.2V24.8A39.2,39.2,0,0,0,29.7,31ZM73.5,31.7V96.3H87.7V57.9C87.7,47.2,82.1,37.8,73.5,31.7Zm-45.6.5c-8.3,6.1-13.5,15.3-13.5,25.6V96.3H27.9Z" opacity="0.35" fill="url(#c)"/><path d="M52,119.1H71.7v34H52Zm-22.3,34H50.2v-34H29.7Zm43.8,0H87.7v-34H73.5Zm-59.1,0H27.9v-34H14.3Z" opacity="0.35" fill="url(#d)"/><circle cx="51.8" cy="61.7" r="28.4" fill="#fff" opacity="0.7"/><circle cx="51.8" cy="61.7" r="23.5" opacity="0.63"/><rect x="13" y="117.8" width="76" height="1.34" opacity="0.3"/><rect x="13" y="96.3" width="76" height="1.34" fill="#fff" opacity="0.3"/><path d="M62.3,73.6l1.4,4.1H41.2l1.4-4.1s.8-1.8,6.7-1.5l3.2,3.5L55.6,72c5.9-.3,6.7,1.5,6.7,1.5M54.5,59.6a1.2,1.2,0,1,0,1.2,1.2,1.2,1.2,0,0,0-1.2-1.2M52.2,45.5c7.7,0,13.9,5.6,13.9,12.6a12.3,12.3,0,0,1-6,10.3,11,11,0,0,1-15.9,0A12.3,12.3,0,0,1,38.3,58c0-6.9,6.2-12.6,13.9-12.6m8.3,21.2a10.2,10.2,0,0,0,1.8-4.2,25,25,0,0,0-.4-5l-.4-1c-4.8-.9-6.5-3.3-7.1-4.9-2.5,4.3-10.1,5.9-12,6.2a10.2,10.2,0,0,0,1.5,8.8l.7.9h.2a10.2,10.2,0,0,0,14.8,0h.2Zm-10.2-7a1.2,1.2,0,1,0,1.2,1.2,1.2,1.2,0,0,0-1.2-1.2" fill="#3a962c"/><path d="M88.5,116.3h0a4.9,4.9,0,0,1-4.9-4.5L82.5,96.7a4.9,4.9,0,0,1,4.9-5.1h2.2a4.9,4.9,0,0,1,4.9,5.1l-1.1,15.1A4.9,4.9,0,0,1,88.5,116.3Z" fill="url(#e)"/><circle cx="88.6" cy="102.7" r="6.4" fill="#169191"/><path d="M52.6,38.9a21.7,21.7,0,0,0-15.7,6.7h.4A21,21,0,0,1,51.1,82.4h1.5a21.8,21.8,0,0,0,0-43.6Z" fill="url(#f)"/><path d="M133.3,106.4c0,3.5,0,7.1,0,10.6a3.8,3.8,0,0,1-3.9,3.9H114.3a3.8,3.8,0,0,1-3.9-3.8q0-10.6,0-21.3a3.8,3.8,0,0,1,3.8-3.8h15.4a3.8,3.8,0,0,1,3.7,3.8C133.3,99.4,133.3,102.9,133.3,106.4Zm-21.7.1c0,3.3,0,6.7,0,10s.9,3.2,3.2,3.2h14.1c2.3,0,3.2-.9,3.2-3.2q0-10,0-20.1c0-2.2-.9-3.1-3.1-3.2H114.8c-2.2,0-3.1.9-3.1,3.1S111.6,103.1,111.6,106.5Zm10.5-6.8c-.1-.4.1-1.2-.7-1.3s-.8.8-.8,1.2,0,2.9-.1,4.3-.1.9-.5,1-.5-.5-.6-.8-.7-2.5-1.1-3.7-.2-1.1-.9-1-.5,1-.4,1.4.8,2.8,1.2,4.3.2.8-.1,1-.8-.2-1-.4-1.1-1.5-1.8-2.1-.7-.7-1.1-.3-.1.8,0,1.2,2.1,2.7,2.5,3.7a15,15,0,0,1,.7,3.6c.2,1.7.8,2.2,2.3,2.2h1.5c2.2.6,3.8-.4,5.2-1.9s1.7-1.5,2.5-2.3.8-.6.7-1.4-1.2-.4-1.6-.2a19,19,0,0,0-2.2,1.6c-.3.2-.8.4-1,.3a1.2,1.2,0,0,1-.5-1c0-.6,1.4-5.7,1.9-7.6s0-1.4-.3-1.5-.9.5-1.1,1.1-.7,2.4-1.2,3.5-.5.8-1,.7-.6-.6-.6-.9,0-1.7,0-2.6A13.8,13.8,0,0,0,122.1,99.7Z" fill="#fff" filter="url(#g)"/><path d="M133.3,106.4c0,3.5,0,7.1,0,10.6a3.8,3.8,0,0,1-3.9,3.9H114.3a3.8,3.8,0,0,1-3.9-3.8q0-10.6,0-21.3a3.8,3.8,0,0,1,3.8-3.8h15.4a3.8,3.8,0,0,1,3.7,3.8C133.3,99.4,133.3,102.9,133.3,106.4Zm-21.7.1c0,3.3,0,6.7,0,10s.9,3.2,3.2,3.2h14.1c2.3,0,3.2-.9,3.2-3.2q0-10,0-20.1c0-2.2-.9-3.1-3.1-3.2H114.8c-2.2,0-3.1.9-3.1,3.1S111.6,103.1,111.6,106.5Zm10.5-6.8c-.1-.4.1-1.2-.7-1.3s-.8.8-.8,1.2,0,2.9-.1,4.3-.1.9-.5,1-.5-.5-.6-.8-.7-2.5-1.1-3.7-.2-1.1-.9-1-.5,1-.4,1.4.8,2.8,1.2,4.3.2.8-.1,1-.8-.2-1-.4-1.1-1.5-1.8-2.1-.7-.7-1.1-.3-.1.8,0,1.2,2.1,2.7,2.5,3.7a15,15,0,0,1,.7,3.6c.2,1.7.8,2.2,2.3,2.2h1.5c2.2.6,3.8-.4,5.2-1.9s1.7-1.5,2.5-2.3.8-.6.7-1.4-1.2-.4-1.6-.2a19,19,0,0,0-2.2,1.6c-.3.2-.8.4-1,.3a1.2,1.2,0,0,1-.5-1c0-.6,1.4-5.7,1.9-7.6s0-1.4-.3-1.5-.9.5-1.1,1.1-.7,2.4-1.2,3.5-.5.8-1,.7-.6-.6-.6-.9,0-1.7,0-2.6A13.8,13.8,0,0,0,122.1,99.7Z" fill="#fff"/></svg>