<?xml version="1.0" encoding="UTF-8" standalone="no"?>
<svg
   id="Laag_1"
   data-name="Laag 1"
   viewBox="0 0 118 88"
   version="1.1"
   sodipodi:docname="pin_rehearsal_disabled.svg"
   inkscape:version="1.1 (c68e22c387, 2021-05-23)"
   xmlns:inkscape="http://www.inkscape.org/namespaces/inkscape"
   xmlns:sodipodi="http://sodipodi.sourceforge.net/DTD/sodipodi-0.dtd"
   xmlns="http://www.w3.org/2000/svg"
   xmlns:svg="http://www.w3.org/2000/svg">
  <sodipodi:namedview
     id="namedview39"
     pagecolor="#ffffff"
     bordercolor="#666666"
     borderopacity="1.0"
     inkscape:pageshadow="2"
     inkscape:pageopacity="0.0"
     inkscape:pagecheckerboard="0"
     showgrid="false"
     inkscape:zoom="8.9661017"
     inkscape:cx="36.97259"
     inkscape:cy="43.999055"
     inkscape:window-width="1920"
     inkscape:window-height="1017"
     inkscape:window-x="1912"
     inkscape:window-y="-8"
     inkscape:window-maximized="1"
     inkscape:current-layer="Laag_1" />
  <defs
     id="defs28">
    <style
       id="style2">.cls-1{fill:url(#Naamloos_verloop_137);}.cls-2{fill:#9c3;}.cls-3{fill:url(#Naamloos_verloop_130);}</style>
    <linearGradient
       id="Naamloos_verloop_137"
       x1="86.79"
       y1="33.32"
       x2="60.05"
       y2="-13"
       gradientTransform="matrix(1, 0, 0, -1, 0, 90)"
       gradientUnits="userSpaceOnUse">
      <stop
         offset="0"
         stop-opacity="0"
         id="stop4" />
      <stop
         offset="1"
         stop-opacity="0.4"
         id="stop6" />
    </linearGradient>
    <radialGradient
       id="Naamloos_verloop_130"
       cx="33.35"
       cy="58.2"
       r="23.32"
       gradientTransform="matrix(1, 0, 0, -1, 0, 90)"
       gradientUnits="userSpaceOnUse">
      <stop
         offset="0.3"
         stop-color="#9c3"
         id="stop9" />
      <stop
         offset="0.59"
         stop-color="#97ca33"
         id="stop11" />
      <stop
         offset="0.7"
         stop-color="#91c333"
         id="stop13" />
      <stop
         offset="0.79"
         stop-color="#86b733"
         id="stop15" />
      <stop
         offset="0.86"
         stop-color="#77a533"
         id="stop17" />
      <stop
         offset="0.88"
         stop-color="#709e33"
         id="stop19" />
      <stop
         offset="0.92"
         stop-color="#6c9b2a"
         id="stop21" />
      <stop
         offset="0.98"
         stop-color="#629111"
         id="stop23" />
      <stop
         offset="1"
         stop-color="#5d8d06"
         id="stop25" />
    </radialGradient>
  </defs>
  <path
     class="cls-1"
     d="M115.4,73.6c-4.65-5.25-29.65-9.85-54.2-.3C54.87,75.61,28,86,30.7,85.9,30.8,86,122.2,82.3,115.4,73.6Z"
     id="path30" />
  <path
     class="cls-2"
     d="M30.4,2A28.21,28.21,0,0,0,2.2,30.2a28.64,28.64,0,0,0,2.2,11h0l.2.4a29,29,0,0,0,2.3,4.2L19,67.9l8.9,16.3c1.3,2.4,3.5,2.4,4.9,0l6.6-12.1L53.3,46.8A28.2,28.2,0,0,0,30.4,2Z"
     id="path32"
     style="fill:#00b5ff;fill-opacity:1" />
  <circle
     class="cls-3"
     cx="30.2"
     cy="30"
     r="22.9"
     id="circle34"
     style="fill:#ffffff" />
  <path
     d="M 46.5,28.4 A 15.8,15.8 0 1 0 30.8,45.8 V 40.3 A 10.3,10.3 0 1 1 40.9,28.4 h -3 l 5.5,7.7 5.6,-7.7 z"
     fill="#ffffff"
     id="path36"
     style="fill:#00b5ff;fill-opacity:1" />
</svg>
