<svg xmlns="http://www.w3.org/2000/svg" xmlns:xlink="http://www.w3.org/1999/xlink" width="168" height="144" viewBox="0 0 168 144"><defs><radialGradient id="a" cx="224.8" cy="-210.26" r="38.58" gradientTransform="translate(-393.1 213.1) scale(2.12 0.42)" gradientUnits="userSpaceOnUse"><stop offset="0" stop-opacity="0.5"/><stop offset="0.04" stop-opacity="0.8"/><stop offset="1" stop-opacity="0"/></radialGradient><linearGradient id="b" x1="79.41" y1="48.72" x2="79.41" y2="2.02" gradientUnits="userSpaceOnUse"><stop offset="0" stop-color="#fff" stop-opacity="0.3"/><stop offset="0.16" stop-color="#fff" stop-opacity="0.35"/><stop offset="0.45" stop-color="#fff" stop-opacity="0.49"/><stop offset="0.85" stop-color="#fff" stop-opacity="0.71"/><stop offset="1" stop-color="#fff" stop-opacity="0.8"/></linearGradient><linearGradient id="c" x1="100.05" y1="48.72" x2="100.05" y2="14.43" xlink:href="#b"/><linearGradient id="d" x1="2814.21" y1="48.72" x2="2814.21" y2="11.42" gradientTransform="matrix(-1, 0, 0, 1, 2876.87, 0)" xlink:href="#b"/></defs><title>bttn_ch-steunkaarten</title><rect width="168" height="144" fill="#47ff5c" opacity="0"/><ellipse cx="83.6" cy="124.8" rx="81.8" ry="16.2" fill="url(#a)"/><rect x="24" y="48.7" width="118.1" height="83.51" transform="translate(166.1 180.9) rotate(-180)" fill="#2c3984"/><polygon points="24 132.2 18.5 109.3 18.5 39.6 24 48.7 24 132.2" fill="#576fd3"/><polygon points="18.5 39.5 127.7 39.5 142.1 48.7 24 48.7 18.5 39.5" fill="#172560"/><rect x="67.5" y="58.2" width="33.1" height="7.45" rx="2.6" ry="2.6" fill="#060e28"/><path d="M71.7,82.8l.6,1.2.7,1.5.7,1.6.7,1.6.7-1.6.7-1.6.7-1.5.6-1.2h2q.1,1,.3,2.2t.2,2.5l.2,2.6v2.5H77.7q0-1.4-.1-3.1t-.2-3.4l-.6,1.3-.6,1.5-.6,1.4-.5,1.1H73.5l-.5-1.1-.6-1.4-.6-1.5-.6-1.3q-.1,1.7-.2,3.4t-.1,3.1H68.8V90.1l.2-2.6q.1-1.3.2-2.5t.3-2.2ZM84,83a1.2,1.2,0,0,1-.4.9,1.4,1.4,0,0,1-1.8,0,1.3,1.3,0,0,1,0-1.8,1.4,1.4,0,0,1,1.8,0A1.2,1.2,0,0,1,84,83Zm-.2,9.7H81.7V85.1h2.1Zm1.3,2.6h-.6l-.7-.2.3-1.7h.8a.8.8,0,0,0,.7-.3,1.6,1.6,0,0,0,.2-.9V85.1h2.1v7.2a3,3,0,0,1-.7,2.2A2.9,2.9,0,0,1,85.1,95.3Zm3-12.3a1.2,1.2,0,0,1-.4.9,1.4,1.4,0,0,1-1.8,0,1.3,1.3,0,0,1,0-1.8,1.4,1.4,0,0,1,1.8,0A1.2,1.2,0,0,1,88.1,83Zm1.8,2.4,1.4-.3h1.8l1.6.2a2.4,2.4,0,0,1,1,.7,2.8,2.8,0,0,1,.5,1.1,5.8,5.8,0,0,1,.2,1.4v4.2H94.3v-4a2.9,2.9,0,0,0-.3-1.5,1.1,1.1,0,0,0-1-.4h-.9v5.8H89.9ZM41.8,106h.8a.4.4,0,0,0,.2-.4.5.5,0,0,0-.3-.4l-1-.4-.9-.4-.7-.5a1.9,1.9,0,0,1-.4-.7,2.4,2.4,0,0,1-.2-.9,2,2,0,0,1,.8-1.7,3.4,3.4,0,0,1,2.2-.6h1.3l1,.3-.4,1.7-.8-.2h-1q-1,0-1,.6v.2l.2.2.3.2.6.2,1.2.5.7.5a1.7,1.7,0,0,1,.4.6,2.9,2.9,0,0,1,.1.8,1.9,1.9,0,0,1-.8,1.7,4.2,4.2,0,0,1-2.4.6l-1.7-.2-.9-.3.4-1.7,1.1.3Zm4.7-7.8,2.1-.3V100h2.6v1.8H48.6v2.6a2.1,2.1,0,0,0,.2,1.1,1,1,0,0,0,.9.4h.7l.7-.2.3,1.7-.9.3H49.4l-1.4-.2a2.3,2.3,0,0,1-.9-.7,2.4,2.4,0,0,1-.5-1,6,6,0,0,1-.1-1.3Zm5.8,5.7a4.6,4.6,0,0,1,.3-1.7,3.7,3.7,0,0,1,.8-1.2,3.3,3.3,0,0,1,1.1-.8l1.3-.3a3.3,3.3,0,0,1,2.5,1,4,4,0,0,1,.9,2.9c0,.1,0,.3,0,.4v.4H54.4a1.4,1.4,0,0,0,.6,1,2.5,2.5,0,0,0,1.5.4h1.1l.9-.3.3,1.7-.5.2H56.2a4.7,4.7,0,0,1-1.8-.3,3.4,3.4,0,0,1-1.2-.8,3.3,3.3,0,0,1-.7-1.2A4.9,4.9,0,0,1,52.2,103.8Zm5-.8a2.2,2.2,0,0,0-.1-.5l-.2-.5-.4-.3H55.2l-.4.3-.3.5v.5Zm10.1,4.2-1.4.3H64.1a4.3,4.3,0,0,1-1.6-.3,2.4,2.4,0,0,1-1-.7,2.8,2.8,0,0,1-.5-1.1,5.9,5.9,0,0,1-.2-1.4V100h2.1v3.9a3,3,0,0,0,.3,1.5,1.1,1.1,0,0,0,1,.5h.9V100h2.1Zm2-7,1.4-.3h1.8l1.6.2a2.4,2.4,0,0,1,1,.7,2.8,2.8,0,0,1,.5,1.1,5.8,5.8,0,0,1,.2,1.4v4.2H73.6v-4a2.9,2.9,0,0,0-.3-1.5,1.1,1.1,0,0,0-1-.4h-.9v5.8H69.3Zm10.5,2.4.6-.7.6-.7.6-.7.5-.6h2.5l-1.5,1.7-1.6,1.6.9.9.9,1.1.8,1.1.6,1H82.3l-.5-.8-.6-.9-.7-.9-.7-.7v3.3H77.7V96.8l2.1-.3Zm8.7-2.9,1.6.2a2.4,2.4,0,0,1,1,.6,2.3,2.3,0,0,1,.5,1,4.8,4.8,0,0,1,.2,1.3v4.4l-1.3.2H87.2l-1-.4a1.9,1.9,0,0,1-.7-.8,2.6,2.6,0,0,1-.2-1.2,2.2,2.2,0,0,1,.3-1.1,2,2,0,0,1,.7-.7l1-.4h2.4v-.2a1.2,1.2,0,0,0-.3-.9,1.6,1.6,0,0,0-1.1-.3H87.2l-.9.2-.3-1.7h2.5Zm.2,6.2h1.1v-1.6H87.8l-.3.3a.8.8,0,0,0-.1.4.7.7,0,0,0,.3.7Zm7.7-6.2,1.6.2a2.4,2.4,0,0,1,1,.6,2.3,2.3,0,0,1,.5,1,4.8,4.8,0,0,1,.2,1.3v4.4l-1.3.2H95.1l-1-.4a1.9,1.9,0,0,1-.7-.8,2.6,2.6,0,0,1-.2-1.2,2.2,2.2,0,0,1,.3-1.1,2,2,0,0,1,.7-.7l1-.4h2.4v-.2a1.2,1.2,0,0,0-.3-.9,1.6,1.6,0,0,0-1.1-.3H95.1l-.9.2-.3-1.7h2.5Zm.2,6.2h1.1v-1.6H95.7l-.3.3a.8.8,0,0,0-.1.4.7.7,0,0,0,.3.7Zm9.5-4.1h-2.4v5.7h-2.1v-7.1l1.3-.4,1.7-.2h1.8Zm1.4-3.7,2.1-.3V100h2.6v1.8h-2.6v2.6a2.1,2.1,0,0,0,.2,1.1,1,1,0,0,0,.9.4h.7l.7-.2.3,1.7-.9.3h-1.2l-1.4-.2a2.3,2.3,0,0,1-.9-.7,2.4,2.4,0,0,1-.5-1,6,6,0,0,1-.1-1.3Zm5.8,5.7a4.6,4.6,0,0,1,.3-1.7,3.7,3.7,0,0,1,.8-1.2,3.3,3.3,0,0,1,1.1-.8l1.3-.3a3.3,3.3,0,0,1,2.5,1,4,4,0,0,1,.9,2.9c0,.1,0,.3,0,.4v.4h-4.8a1.4,1.4,0,0,0,.6,1,2.5,2.5,0,0,0,1.5.4h1.1l.9-.3.3,1.7-.5.2h-2.2a4.7,4.7,0,0,1-1.8-.3,3.4,3.4,0,0,1-1.2-.8,3.3,3.3,0,0,1-.7-1.2A4.9,4.9,0,0,1,113.3,103.8Zm5-.8a2.2,2.2,0,0,0-.1-.5l-.2-.5-.4-.3h-1.2l-.4.3-.3.5v.5Zm3.7-2.7,1.4-.3h1.8l1.6.2a2.4,2.4,0,0,1,1,.7,2.8,2.8,0,0,1,.5,1.1,5.8,5.8,0,0,1,.2,1.4v4.2h-2.1v-4a2.9,2.9,0,0,0-.3-1.5,1.1,1.1,0,0,0-1-.4h-.9v5.8h-2.1Z" fill="#279be4"/><path d="M58.6,2h41.6a11.5,11.5,0,0,1,11.5,11.5V48.7a0,0,0,0,1,0,0H47.1a0,0,0,0,1,0,0V13.5A11.5,11.5,0,0,1,58.6,2Z" fill="url(#b)"/><path d="M130.5,48.7H63.7l8.4-29.6a6.4,6.4,0,0,1,6.6-4.6l52,3.6a6.2,6.2,0,0,1,5.6,7.7Z" fill="url(#c)"/><path d="M33,48.7H99.8s-13-37.3-13.1-37.3L30.4,15a5.2,5.2,0,0,0-4.7,6.6Z" fill="url(#d)"/></svg>