<svg xmlns="http://www.w3.org/2000/svg" xmlns:xlink="http://www.w3.org/1999/xlink" width="130" height="232" viewBox="0 0 130 232"><defs><radialGradient id="a" cx="158.44" cy="2.59" r="38.58" gradientTransform="translate(-193.3 213.1) scale(1.63 0.42)" gradientUnits="userSpaceOnUse"><stop offset="0" stop-opacity="0.5"/><stop offset="0.04" stop-opacity="0.8"/><stop offset="1" stop-opacity="0"/></radialGradient><radialGradient id="b" cx="68.47" cy="170.24" r="55.71" gradientUnits="userSpaceOnUse"><stop offset="0" stop-color="#05d3af" stop-opacity="0.65"/><stop offset="0.92" stop-color="#039279" stop-opacity="0.94"/><stop offset="1" stop-color="#03856e"/></radialGradient><filter id="c" name="AI_GaussiaansVervagen_4"><feGaussianBlur stdDeviation="4"/></filter><radialGradient id="d" cx="83.22" cy="129.28" r="44.69" gradientUnits="userSpaceOnUse"><stop offset="0" stop-color="#fff" stop-opacity="0.6"/><stop offset="0.14" stop-color="#fff" stop-opacity="0.55"/><stop offset="0.39" stop-color="#fff" stop-opacity="0.41"/><stop offset="0.74" stop-color="#fff" stop-opacity="0.19"/><stop offset="1" stop-color="#fff" stop-opacity="0"/></radialGradient></defs><title>bttn_ch-dizzy</title><rect width="130" height="232" fill="#47ff5c" opacity="0"/><ellipse cx="64.5" cy="214.1" rx="62.8" ry="16.2" fill="url(#a)"/><path d="M77.8,111.1a55.8,55.8,0,1,1-68.4,39A55.8,55.8,0,0,1,77.8,111.1Z" fill-rule="evenodd" fill="url(#b)"/><path d="M63.3,9.7a2.8,2.8,0,0,0,1,.7l1.3.2,1.3-.2a2.8,2.8,0,0,0,1-.7,3,3,0,0,0,.6-1.1,4.1,4.1,0,0,0,.2-1.4,3.9,3.9,0,0,0-.2-1.4,3.1,3.1,0,0,0-.6-1.1,2.9,2.9,0,0,0-1-.7l-1.3-.2-1.3.2a2.9,2.9,0,0,0-1,.7,3.1,3.1,0,0,0-.7,1.1,3.8,3.8,0,0,0-.2,1.4,3.9,3.9,0,0,0,.2,1.4A3.1,3.1,0,0,0,63.3,9.7ZM64.6,6a1.1,1.1,0,0,1,1-.5,1.1,1.1,0,0,1,.9.5,2.3,2.3,0,0,1,.3,1.3,2.3,2.3,0,0,1-.3,1.3,1.1,1.1,0,0,1-.9.5,1.1,1.1,0,0,1-1-.5,2.3,2.3,0,0,1-.3-1.3A2.2,2.2,0,0,1,64.6,6ZM88.2,29.3l1.3-1.2-.2-1.7,1.5.9,1.6-.7L92,28.3l1.2,1.3-1.7.2-.8,1.5-.7-1.6ZM80.7,48.6l1.7.6-2.2,6-1.7-.6ZM42.9,28.8h1.8V26.4l.6.2h.7l1.2-.2a2.4,2.4,0,0,0,.9-.7,3,3,0,0,0,.5-1,4.7,4.7,0,0,0,.2-1.3,4,4,0,0,0-.2-1.4,2.8,2.8,0,0,0-1.7-1.7l-1.4-.2H42.9Zm1.8-7.1h.8a1.3,1.3,0,0,1,1.1.5,2.2,2.2,0,0,1,.4,1.3q0,1.7-1.3,1.7h-.6l-.4-.2Zm9.1,14.4L52.4,35l3.8-4.8.5.2.6.3.6.4.6.4a3,3,0,0,1,.8.8,2.5,2.5,0,0,1,.3.8l1,.2.8.5a3.2,3.2,0,0,1,.8.9,1.9,1.9,0,0,1,.2,1,2.3,2.3,0,0,1-.3,1l-.7,1-2.2,2.8-1.4-1.1L60,36.7a2.5,2.5,0,0,0,.6-1.1.8.8,0,0,0-.4-.8l-.4-.2h-.4l-.3.5-.4.5-2.2,2.7-1.4-1.1,2.1-2.6a2.5,2.5,0,0,0,.6-1.1.8.8,0,0,0-.4-.8l-.3-.2-.3-.2Zm28.7,12a1.1,1.1,0,0,1-1.4-.5,1.1,1.1,0,0,1,.5-1.5,1.1,1.1,0,0,1,1.4.5,1.1,1.1,0,0,1-.5,1.5ZM99.1,14.2l-.6-1.9h1.9l.2.9.2,1.1.3,1.1.3,1.1.3-1.1.3-1.1.3-1,.2-.9h1.3l.2.9.3,1,.3,1.1.3,1.1.3-1.1.3-1.1.2-1.1.2-.9h1.9l-.6,1.9-.6,1.8-.5,1.5-.5,1.2h-1.4l-.6-1.8-.5-1.8-.5,1.8-.6,1.8h-1.4l-.5-1.2L99.6,16ZM84,7.8l-3.1-1,.2-.6.5-.4.6-.5.6-.4.6-.4-1.6-.5.3-.9,2.9.9-.2.7-.5.3-.6.4-.7.4-.6.5,1.8.6ZM70.4,35.3v-.4c22.5,0,40.8,7.1,40.8,15.9h-.4C110.8,42.3,92.7,35.3,70.4,35.3Zm11-9.5a.5.5,0,0,0-.3-.4l-.8-.4-.8-.3-.6-.4-.4-.6a2.1,2.1,0,0,1-.1-.8,1.7,1.7,0,0,1,.7-1.4,2.9,2.9,0,0,1,1.8-.5h1.1l.8.2-.3,1.4-.7-.2h-.8q-.8,0-.8.5v.4l.3.2.5.2,1,.4.6.5.3.5a2.4,2.4,0,0,1,.1.7,1.6,1.6,0,0,1-.7,1.4,3.5,3.5,0,0,1-2,.5H79.1l-.8-.2.3-1.5.9.3h1.7A.4.4,0,0,0,81.4,25.9ZM52,59l2.1-1.6V54.8l2.1,1.6,2.5-.9L57.9,58l1.6,2.1H56.9l-1.5,2.2-.8-2.5Zm-36.8-.8h-.4c0-8.8,18.3-15.9,40.8-15.9v.4C33.3,42.8,15.2,49.7,15.2,58.2ZM117.8,30.6a5.2,5.2,0,0,0-1.4-1.2l-1.6-.7a3.9,3.9,0,0,0-1.5-.1,3.1,3.1,0,0,0-1.3.5,3.7,3.7,0,0,0-1.1,1.2l-.4.8a4.4,4.4,0,0,0-.2.8l-3.5-2.1-.9,2.2,10,5.9.5-.5.6-.7.6-.7.5-.7a5.1,5.1,0,0,0,.7-1.7,3.7,3.7,0,0,0-.1-1.6A3.8,3.8,0,0,0,117.8,30.6Zm-1.6,3.8-.3.5-.3.4L112,33a2,2,0,0,1,.1-.6l.3-.7q.8-1.4,2.8-.3a2.9,2.9,0,0,1,1.3,1.3A1.7,1.7,0,0,1,116.2,34.3ZM22.6,77.1c-5-2.1-7.6-4.6-7.6-7.3,0-4.1,6.5-7.9,17.8-10.3l-1.5-2.1h2.7l1.6-2.2.8,2.5,2.5.8-2.2,1.5v2.7l-2.1-1.6-2.5.8.7-2.1c-10.8,2.4-17.2,6-17.2,9.9s2.5,4.8,7.4,6.9Zm40.5-9c-22.5,0-40.8,7.1-40.8,15.9,0,3.5,2.9,6.7,7.8,9.3A8.2,8.2,0,0,0,29,97.6c0,3.9,3,7.4,8,10.2v.2a5.8,5.8,0,0,0,1.6,3.8,5.8,5.8,0,0,0-1.6,3.8c0,5.5,9.6,10.1,22.1,10.9l1.5.6.5,2.6,1.8-2,2.6.3-.9-1.4c13.9-.3,24.9-5.1,24.9-11.1a5.8,5.8,0,0,0-1.6-3.8,5.8,5.8,0,0,0,1.6-3.8v-.2l.6-.3,2.1-.2,1.7,2.1.6-2.6,2.5-1-2.3-1.4v-.5a9.3,9.3,0,0,0,2.8-6.3,8.2,8.2,0,0,0-1.2-4.2c4.9-2.6,7.8-5.8,7.8-9.3C103.9,75.3,85.6,68.1,63.1,68.1ZM29.4,97.6a7.8,7.8,0,0,1,1.2-4,45.4,45.4,0,0,0,7.7,3l.4.4-.4,2.6,2.3-1.3L43,99.5l-.3-1.7,5.6,1.1c-6.5,1.9-10.9,5-11.4,8.5C32.2,104.6,29.4,101.2,29.4,97.6Zm34-14.4,2.4,1.2-.4-2.1c14.3.4,26.2,5,30.1,11-4.7,2.4-11.1,4.3-18.6,5.3a55.1,55.1,0,0,0-13.8-1.7,55.1,55.1,0,0,0-13.8,1.7c-2.4-.3-4.6-.7-6.8-1.2v-.4L44.4,95l-2.6-.3-1.2-2.4-1.1,2.4-2.6.4.8.8a43.5,43.5,0,0,1-6.8-2.7c4-6.2,16.1-10.7,30.6-11.1l-.3,2.3ZM63.1,113a62.2,62.2,0,0,1-21.3-3.5c4.7-2.8,12.4-4.6,21.3-4.6s16.6,1.8,21.3,4.6A62.2,62.2,0,0,1,63.1,113Zm21.7-3.2a12.3,12.3,0,0,1,2.4,1.9c-3.7,4-13.1,6.8-24.1,6.8s-20.4-2.8-24.1-6.8a12.3,12.3,0,0,1,2.4-1.9,62,62,0,0,0,21.7,3.6A62,62,0,0,0,84.8,109.8Zm-21.7-5.4c-9,0-17,1.9-21.7,4.9a34.9,34.9,0,0,1-4-1.8c.4-3.6,5.1-6.7,12-8.5a102.1,102.1,0,0,0,27.5,0c6.9,1.8,11.6,4.9,12,8.5a34.9,34.9,0,0,1-4,1.8C80.2,106.4,72.2,104.4,63.1,104.4Zm0-5a101,101,0,0,1-12.6-.8,59,59,0,0,1,25.2,0A101,101,0,0,1,63.1,99.4Zm-25.8,8.5,3.6,1.7a12.8,12.8,0,0,0-2.2,1.8A5.4,5.4,0,0,1,37.3,107.9Zm51.6,7.6c0,5.7-11,10.4-24.7,10.6l-.2-.4,1.1-2.4-2.6.6-1.9-1.8-.3,2.6L58.1,126c-11.8-1-20.8-5.3-20.8-10.4a5.4,5.4,0,0,1,1.4-3.5c3.9,4.1,13.3,7,24.4,7s20.5-2.9,24.4-7A5.4,5.4,0,0,1,88.9,115.5Zm-1.4-4.1a12.8,12.8,0,0,0-2.2-1.8l3.6-1.7A5.4,5.4,0,0,1,87.5,111.4Zm9.4-13.9a8.7,8.7,0,0,1-2.4,5.7v-1.5l-2,1.7-2.6-.7,1,2.5-1.2,1.9-.3.2c-.5-3.5-4.9-6.6-11.4-8.5a59,59,0,0,0,17.8-5.3A7.8,7.8,0,0,1,96.9,97.6Zm-1-4.6c-4-6.2-16.1-10.9-30.6-11.3h0l1.9-1.9-2.6-.3-1.2-2.4-1.1,2.4-2.6.4,1.9,1.7c-14.7.3-26.9,5-31,11.3-4.8-2.5-7.6-5.6-7.6-9,0-8.5,18.1-15.4,40.3-15.4s40.3,6.9,40.3,15.4C103.4,87.4,100.6,90.5,95.9,93ZM38.9,9.4,37.4,2.7l1.3-.5.9,3.9.3-.5.3-.5.3-.5.2-.4,1.6-.4L41.5,5l-.7,1.2.7.4.7.6.6.6.5.6-1.5.3-.4-.4-.5-.5-.5-.4-.5-.3.5,2Zm75.9,68c0,2.6-2.6,5.1-7.6,7.3l-.2-.4c4.8-2.1,7.4-4.4,7.4-6.9S108,70,97.2,67.6l.7,2.1-2.5-.8-2.1,1.6V67.8l-2.2-1.5,2.5-.8.8-2.5,1.6,2.2h2.7l-1.5,2.1C108.4,69.6,114.8,73.3,114.8,77.4ZM31,35.9l-1.5-1.1,1.9-.6,1.7,1.3.7-2.1,1.8-.6-1.2,3.6,1.8,1.2,1.4,1.2-1.8.6-.4-.4-.5-.4-.5-.4-.5-.2-.3.4-.2.6v1.2l-1.7.6.2-.8.3-1,.4-1,.4-.9ZM13.8,44.3l1.4-1V41.5l1.4,1,1.6-.6-.5,1.7L18.8,45H17l-1,1.4-.5-1.7ZM20,18a2.9,2.9,0,0,0,1.1.7l1.5.3h2.2L24.5,17l-.8.2h-1a2.1,2.1,0,0,1-1.2-.3,1.2,1.2,0,0,1-.5-.9h4.1v-.3c0-.1,0-.2,0-.3a3.4,3.4,0,0,0-.8-2.4,2.8,2.8,0,0,0-2.1-.8l-1.1.2-1,.6a3.2,3.2,0,0,0-.7,1.1,3.9,3.9,0,0,0-.3,1.5,4.1,4.1,0,0,0,.2,1.3A2.7,2.7,0,0,0,20,18Zm1.1-3.5.2-.4.4-.3h1l.4.3.2.4a1.9,1.9,0,0,1,.1.4H21Zm-1.5,18a3,3,0,0,0,.7-1.3,3.2,3.2,0,0,0-.1-1.5,6.4,6.4,0,0,0-.9-1.9l-.6-.8-.6-.7-.6-.6-.5-.4-1.7,1.6.9.8.9,1.1a2.1,2.1,0,0,1,.5,1.5,1.5,1.5,0,0,1-.7,1h-.2l-.3-.6-.5-.8-1-1.2-1.2-.8a2.7,2.7,0,0,0-1.3-.2,2.9,2.9,0,0,0-1.4.5A3.4,3.4,0,0,0,10,29.3a2.5,2.5,0,0,0-.3,1.3A3.8,3.8,0,0,0,9.9,32a8.2,8.2,0,0,0,.8,1.5,16,16,0,0,0,1.6,2l1.2,1.2,4.8-3.2Zm-6.1,1.2-.4-.5-.5-.6a2.4,2.4,0,0,1-.5-1.1,1,1,0,0,1,.5-.9l.5-.2h.5l.5.4.5.6.3.5.2.5Z" fill="#fff" filter="url(#c)"/><path d="M97.1,97.6c0,8.6-15.2,15.6-34,15.6s-34-7-34-15.6,15.2-15.6,34-15.6S97.1,88.9,97.1,97.6Zm-34-29.2c-22.4,0-40.5,7-40.5,15.6S40.7,99.7,63.1,99.7s40.5-7,40.5-15.6S85.5,68.4,63.1,68.4ZM55.5,42.6c-22.4,0-40.5,7-40.5,15.6m96-7.5c0-8.6-18.1-15.6-40.5-15.6m-7.3,62c-14.4,0-26,4.9-26,10.9s11.6,10.9,26,10.9,26-4.9,26-10.9S77.5,97.1,63.1,97.1Zm0,7.6c-14.4,0-26,4.9-26,10.9s11.6,10.9,26,10.9,26-4.9,26-10.9S77.5,104.7,63.1,104.7Zm44-20.2c4.7-2,7.5-4.4,7.5-7.1,0-4.3-7.5-8.1-18.9-10.4M34.1,59.5c-11.4,2.3-18.9,6.1-18.9,10.4,0,2.6,2.8,5,7.5,7.1" fill="none" stroke="#fff" stroke-miterlimit="10"/><path d="M52,59l2.1-1.6V54.8l2.1,1.6,2.5-.9L57.9,58l1.6,2.1H56.9l-1.5,2.2-.8-2.5ZM15.5,44.8l.5,1.7L17,45h1.7l-1.1-1.4.5-1.7-1.6.6-1.4-1v1.7l-1.4,1ZM89.9,29.7l.7,1.6.8-1.5,1.7-.2L92,28.3l.4-1.7-1.6.7-1.5-.9.2,1.7-1.3,1.2Zm.9,75.5-1.4,2.2,2.6-.2,1.7,2.1.6-2.6,2.5-1-2.3-1.4v-2.7l-2,1.7-2.6-.7Zm2.5-37.4v2.7l2.1-1.6,2.5.8L97,67.2,98.6,65H95.9l-1.6-2.2-.8,2.5-2.5.8ZM38.7,58.7l-2.5-.8-.8-2.5-1.6,2.2H31.2l1.6,2.1-.9,2.5,2.5-.8,2.1,1.6V60.2Zm21.7,68.4.5,2.6,1.8-2,2.6.3L64,125.8l1.1-2.4-2.6.6-1.9-1.8-.3,2.6L58,126.1ZM38.7,97l-.4,2.6,2.3-1.3L43,99.5l-.5-2.6L44.4,95l-2.6-.3-1.2-2.4-1.1,2.4-2.6.4ZM61.5,81.8l-.4,2.6,2.3-1.3,2.4,1.2-.5-2.6,1.9-1.9-2.6-.3-1.2-2.4-1.1,2.4-2.6.4Zm-42.2-54a6.4,6.4,0,0,1,.9,1.9,3.2,3.2,0,0,1,.1,1.5,3,3,0,0,1-.7,1.3l-1.3,1.1-4.8,3.2-1.2-1.2a16,16,0,0,1-1.6-2A8.2,8.2,0,0,1,9.9,32a3.8,3.8,0,0,1-.3-1.4,2.5,2.5,0,0,1,.3-1.3,3.4,3.4,0,0,1,1.1-1.1,2.9,2.9,0,0,1,1.4-.5,2.7,2.7,0,0,1,1.3.2l1.2.8,1,1.2.5.8.3.6h.2a1.5,1.5,0,0,0,.7-1,2.1,2.1,0,0,0-.5-1.5l-.9-1.1-.9-.8L17,25.3l.5.4.6.6.6.7Zm-6.6,4.8.5.6.4.5,1.7-1.2L15,32l-.3-.5-.5-.6-.5-.4h-.5l-.5.2a1,1,0,0,0-.5.9A2.4,2.4,0,0,0,12.6,32.5Zm103.8-3.1a5.2,5.2,0,0,1,1.4,1.2,3.8,3.8,0,0,1,.8,1.4,3.7,3.7,0,0,1,.1,1.6,5.1,5.1,0,0,1-.7,1.7l-.5.7-.6.7-.6.7-.5.5-10-5.9.9-2.2,3.5,2.1a4.4,4.4,0,0,1,.2-.8l.4-.8a3.7,3.7,0,0,1,1.1-1.2,3.1,3.1,0,0,1,1.3-.5,3.9,3.9,0,0,1,1.5.1Zm-1.3,2q-1.9-1.1-2.8.3l-.3.7a2,2,0,0,0-.1.6l3.7,2.2.3-.4.3-.5a1.7,1.7,0,0,0,.2-1.6A2.9,2.9,0,0,0,115.1,31.4Zm-96-15.8a3.9,3.9,0,0,1,.3-1.5,3.2,3.2,0,0,1,.7-1.1l1-.6,1.1-.2a2.8,2.8,0,0,1,2.1.8,3.4,3.4,0,0,1,.8,2.4c0,.1,0,.2,0,.3v.3H21a1.2,1.2,0,0,0,.5.9,2.1,2.1,0,0,0,1.2.3h1l.8-.2.2,1.5H22.5L21,18.7A2.9,2.9,0,0,1,20,18a2.7,2.7,0,0,1-.6-1A4.1,4.1,0,0,1,19.2,15.6Zm4.2-.7a1.9,1.9,0,0,0-.1-.4l-.2-.4-.4-.3h-1l-.4.3-.2.4v.5ZM83.1,47.5a1,1,0,0,1-.6.6,1.1,1.1,0,0,1-1.4-.5,1.1,1.1,0,0,1,.5-1.5,1.1,1.1,0,0,1,1.4.5A1,1,0,0,1,83.1,47.5Zm-2.9,7.7-1.7-.6,2.2-6,1.7.6ZM39.5,6.1l.3-.5.3-.5.3-.5.2-.4,1.6-.4L41.5,5l-.7,1.2.7.4.7.6.6.6.5.6-1.5.3-.4-.4-.5-.5-.5-.4-.5-.3.5,2-1.3.3L37.4,2.7l1.3-.5ZM57.3,34.5a2.5,2.5,0,0,0,.6-1.1.8.8,0,0,0-.4-.8l-.3-.2-.3-.2-3.1,3.8L52.4,35l3.8-4.8.5.2.6.3.6.4.6.4a3,3,0,0,1,.8.8,2.5,2.5,0,0,1,.3.8l1,.2.8.5a3.2,3.2,0,0,1,.8.9,1.9,1.9,0,0,1,.2,1,2.3,2.3,0,0,1-.3,1l-.7,1-2.2,2.8-1.4-1.1L60,36.7a2.5,2.5,0,0,0,.6-1.1.8.8,0,0,0-.4-.8l-.4-.2h-.4l-.3.5-.4.5-2.2,2.7-1.4-1.1ZM68.7,7.3a4.1,4.1,0,0,1-.2,1.4,3,3,0,0,1-.6,1.1,2.8,2.8,0,0,1-1,.7l-1.3.2-1.3-.2a2.8,2.8,0,0,1-1-.7,3.1,3.1,0,0,1-.6-1.1,3.9,3.9,0,0,1-.2-1.4,3.8,3.8,0,0,1,.2-1.4,3.1,3.1,0,0,1,.7-1.1,2.9,2.9,0,0,1,1-.7l1.3-.2,1.3.2a2.9,2.9,0,0,1,1,.7,3.1,3.1,0,0,1,.6,1.1A3.9,3.9,0,0,1,68.7,7.3Zm-1.8,0A2.3,2.3,0,0,0,66.5,6a1.1,1.1,0,0,0-.9-.5,1.1,1.1,0,0,0-1,.5,2.2,2.2,0,0,0-.3,1.3,2.3,2.3,0,0,0,.3,1.3,1.1,1.1,0,0,0,1,.5,1.1,1.1,0,0,0,.9-.5A2.3,2.3,0,0,0,66.9,7.3Zm-18,16.1a4.7,4.7,0,0,1-.2,1.3,3,3,0,0,1-.5,1,2.4,2.4,0,0,1-.9.7l-1.2.2h-.7l-.6-.2v2.4H42.9V20.5h2.6l1.4.2A2.8,2.8,0,0,1,48.6,22,4,4,0,0,1,48.8,23.4Zm-1.8,0a2.2,2.2,0,0,0-.4-1.3,1.3,1.3,0,0,0-1.1-.5h-.8v3.3l.4.2h.6Q47,25.2,47,23.5Zm33.5,2.9h.7a.4.4,0,0,0,.2-.4.5.5,0,0,0-.3-.4l-.8-.4-.8-.3-.6-.4-.4-.6a2.1,2.1,0,0,1-.1-.8,1.7,1.7,0,0,1,.7-1.4,2.9,2.9,0,0,1,1.8-.5h1.1l.8.2-.3,1.4-.7-.2h-.8q-.8,0-.8.5v.4l.3.2.5.2,1,.4.6.5.3.5a2.4,2.4,0,0,1,.1.7,1.6,1.6,0,0,1-.7,1.4,3.5,3.5,0,0,1-2,.5H79.1l-.8-.2.3-1.5.9.3Zm22.6-11.3-.5,1.8-.6,1.8h-1.4l-.5-1.2L99.6,16l-.6-1.8-.6-1.9h1.9l.2.9.2,1.1.3,1.1.3,1.1.3-1.1.3-1.1.3-1,.2-.9h1.3l.2.9.3,1,.3,1.1.3,1.1.3-1.1.3-1.1.2-1.1.2-.9h1.9l-.6,1.9-.6,1.8-.5,1.5-.5,1.2h-1.4l-.6-1.8Zm-70,20.4.7-2.1,1.8-.6-1.2,3.6,1.8,1.2,1.4,1.2-1.8.6-.4-.4-.5-.4-.5-.4-.5-.2-.3.4-.2.6v1.2l-1.7.6.2-.8.3-1,.4-1,.4-.9L31,35.9l-1.5-1.1,1.9-.6ZM84.9,4.8l-.5.3-.6.4-.7.4-.6.5,1.8.6-.3.9-3.1-1,.2-.6.5-.4.6-.5.6-.4.6-.4-1.6-.5.3-.9,2.9.9ZM46.3,166.7q.4,4.7-2,7.5t-7.5,3.2l-5.4.5-1.7-19.1,6-.5q4.7-.4,7.5,1.8A9.1,9.1,0,0,1,46.3,166.7Zm-4.2.5q-.6-6.1-6-5.6l-2.2.2,1.1,12.4,1.7-.2Q42.7,173.5,42.1,167.2Zm6.9-9.4q-.2-1.9,2-2.1t2.3,1.7a1.9,1.9,0,0,1-.4,1.5,2.3,2.3,0,0,1-1.6.7Q49.2,159.7,49,157.8Zm5.8,18-4,.4-1.3-14.6,4-.4Zm14.3-1.3-11.5,1.1-.2-2.3,5.9-9.8-6.3.6-.3-3,10.9-1,.2,2.6L62,172l6.8-.6Zm13-1.2-11.5,1.1-.2-2.3,5.9-9.8-6.3.6-.3-3,10.9-1,.2,2.6-5.8,9.6,6.8-.6Zm-.5-14.6,4.4-.4,3.5,7.9a11.4,11.4,0,0,1,.7,2.5h.1a11.2,11.2,0,0,1,.3-2.6l1.9-8.4,4.3-.4-4.7,17a7.1,7.1,0,0,1-2.1,3.6,6.1,6.1,0,0,1-3.6,1.5h-2l-.3-3.2h1.6a2.8,2.8,0,0,0,1.8-.8,4.2,4.2,0,0,0,1.1-2.1l.2-.7Z" fill="#fff"/><circle cx="83.2" cy="129.3" r="44.7" fill="url(#d)"/></svg>